<svg width="25" height="25" viewBox="0 0 25 25" fill="none" xmlns="http://www.w3.org/2000/svg">
<path fill-rule="evenodd" clip-rule="evenodd" d="M11.8638 2.15506C12.1346 1.94441 12.5138 1.94441 12.7847 2.15506L21.7847 9.15506C21.9674 9.29715 22.0742 9.51563 22.0742 9.74707V20.7471C22.0742 21.4764 21.7845 22.1759 21.2688 22.6916C20.753 23.2073 20.0536 23.4971 19.3242 23.4971H5.32422C4.59487 23.4971 3.8954 23.2073 3.37968 22.6916C2.86395 22.1759 2.57422 21.4764 2.57422 20.7471V9.74707C2.57422 9.51563 2.68107 9.29715 2.86376 9.15506L11.8638 2.15506ZM4.07422 10.1139V20.7471C4.07422 21.0786 4.20591 21.3965 4.44034 21.631C4.67476 21.8654 4.9927 21.9971 5.32422 21.9971H19.3242C19.6557 21.9971 19.9737 21.8654 20.2081 21.631C20.4425 21.3965 20.5742 21.0786 20.5742 20.7471V10.1139L12.3242 3.69722L4.07422 10.1139Z" fill="#1A73E8"/>
<path fill-rule="evenodd" clip-rule="evenodd" d="M8.57422 12.7471C8.57422 12.3329 8.91001 11.9971 9.32422 11.9971H15.3242C15.7384 11.9971 16.0742 12.3329 16.0742 12.7471V22.7471C16.0742 23.1613 15.7384 23.4971 15.3242 23.4971C14.91 23.4971 14.5742 23.1613 14.5742 22.7471V13.4971H10.0742V22.7471C10.0742 23.1613 9.73843 23.4971 9.32422 23.4971C8.91001 23.4971 8.57422 23.1613 8.57422 22.7471V12.7471Z" fill="#1A73E8"/>
</svg>
